<svg width="28" height="24" viewBox="0 0 28 24" fill="none" xmlns="http://www.w3.org/2000/svg">
<path d="M26.9948 9.02875L20.9948 15.0288C20.7131 15.3105 20.3309 15.4689 19.9323 15.4689C19.5338 15.4689 19.1516 15.3105 18.8698 15.0288C18.5881 14.747 18.4297 14.3648 18.4297 13.9663C18.4297 13.5677 18.5881 13.1855 18.8698 12.9038L22.3086 9.4675H18.5586C16.2302 9.46675 13.9676 10.2399 12.1266 11.6655C10.2856 13.091 8.97069 15.088 8.38859 17.3425C8.33935 17.5332 8.25301 17.7124 8.13452 17.8698C8.01603 18.0272 7.8677 18.1597 7.698 18.2597C7.5283 18.3598 7.34056 18.4254 7.14549 18.4529C6.95042 18.4804 6.75184 18.4692 6.56109 18.42C6.37035 18.3708 6.19117 18.2844 6.03379 18.1659C5.87641 18.0474 5.74391 17.8991 5.64386 17.7294C5.5438 17.5597 5.47815 17.372 5.45065 17.1769C5.42315 16.9818 5.43435 16.7832 5.48359 16.5925C6.23081 13.6934 7.92102 11.1251 10.2881 9.29212C12.6552 7.45909 15.5647 6.4654 18.5586 6.4675H22.3086L18.8723 3.0275C18.5906 2.74571 18.4322 2.36352 18.4322 1.965C18.4322 1.56649 18.5906 1.1843 18.8723 0.902504C19.1541 0.620711 19.5363 0.462402 19.9348 0.462402C20.3334 0.462402 20.7156 0.620711 20.9973 0.902504L26.9973 6.9025C27.1372 7.04205 27.2481 7.20784 27.3237 7.39038C27.3993 7.57291 27.4381 7.76858 27.4379 7.96615C27.4377 8.16372 27.3984 8.3593 27.3224 8.54165C27.2463 8.724 27.135 8.88954 26.9948 9.02875ZM21.9336 20.4675H3.43359V5.9675C3.43359 5.56968 3.27556 5.18815 2.99425 4.90684C2.71295 4.62554 2.33142 4.4675 1.93359 4.4675C1.53577 4.4675 1.15424 4.62554 0.872934 4.90684C0.591629 5.18815 0.433594 5.56968 0.433594 5.9675V21.9675C0.433594 22.3653 0.591629 22.7469 0.872934 23.0282C1.15424 23.3095 1.53577 23.4675 1.93359 23.4675H21.9336C22.3314 23.4675 22.7129 23.3095 22.9943 23.0282C23.2756 22.7469 23.4336 22.3653 23.4336 21.9675C23.4336 21.5697 23.2756 21.1882 22.9943 20.9068C22.7129 20.6255 22.3314 20.4675 21.9336 20.4675Z" fill="#343330"/>
</svg>
